# xmcd
#
# Track frame offsets:
# 150
# 10407
# 20386
# 31644
# 49785
# 74246
# 91166
# 107912
# 127945
# 150506
# 166935
# 179008
# 190056
# 209078
#
# Disc length: 3135 seconds
#
# Revision: 0
# Processed by: cddbd v1.5PL3 Copyright (c) Steve Scherf et al.
# Submitted via: Audion 3.0.2 (http://www.panic.com/audion/)
#
DISCID=ba0c3d0e
DTITLE=adfsjhal;ksdfj;lasdkjf;alsjd - adfsjhal;ksdfj;lasdkjf;alsjd
DYEAR=1900
DGENRE=
TTITLE0=adfsjhal;ksdfj;lasdkjf;alsjd
TTITLE1=adfsjhal;ksdfj;lasdkjf;alsjd
TTITLE2=adfsjhal;ksdfj;lasdkjf;alsjd
TTITLE3=adfsjhal;ksdfj;lasdkjf;alsjd
TTITLE4=adfsjhal;ksdfj;lasdkjf;alsjd
TTITLE5=adfsjhal;ksdfj;lasdkjf;alsjd
TTITLE6=adfsjhal;ksdfj;lasdkjf;alsjd
TTITLE7=adfsjhal;ksdfj;lasdkjf;alsjd
TTITLE8=adfsjhal;ksdfj;lasdkjf;alsjd
TTITLE9=adfsjhal;ksdfj;lasdkjf;alsjd
TTITLE10=adfsjhal;ksdfj;lasdkjf;alsjd
TTITLE11=adfsjhal;ksdfj;lasdkjf;alsjd
TTITLE12=adfsjhal;ksdfj;lasdkjf;alsjd
TTITLE13=adfsjhal;ksdfj;lasdkjf;alsjd
EXTD=
EXTT0=
EXTT1=
EXTT2=
EXTT3=
EXTT4=
EXTT5=
EXTT6=
EXTT7=
EXTT8=
EXTT9=
EXTT10=
EXTT11=
EXTT12=
EXTT13=
PLAYORDER=
